<svg height="512pt" viewBox="-35 0 512 512" width="512pt" xmlns="http://www.w3.org/2000/svg"><path d="m268.113281 366.40625c15.332031-7.554688 39.644531-28.558594 41.585938-87.003906.15625-4.890625 2.398437-9.417969 6.019531-12.710938 10.230469-9.304687 29-31.375 41.59375-55.28125 10.796875-20.488281 1.378906-36.6875-14.953125-45.824218-5.429687-3.035157-8.128906-9.3125-8.183594-15.5-.335937-35.734376-12.074219-150.085938-148.796875-150.085938-137.390625 0-148.578125 115.472656-148.796875 150.597656-.035156 6.058594-2.835937 12.09375-8.183593 14.988282-17.628907 9.519531-25.988282 27.316406-13.859376 48.351562 13.039063 22.625 30.585938 43.738281 40.472657 52.734375 3.699219 3.363281 5.882812 8.070313 6.058593 13.058594 2.019532 58.199219 26.277344 79.136719 41.578126 86.675781 9.101562 4.484375 15.21875 12.730469 15.21875 22.183594 0 11.917968-6.109376 23.003906-16.199219 29.449218l-73.648438 21.609376c-16.914062 6.640624-28.019531 22.855468-28.019531 40.90625 0 17.367187 14.078125 31.445312 31.445312 31.445312h307.871094c17.363282 0 31.441406-14.078125 31.441406-31.445312 0-18.050782-11.105468-34.265626-28.007812-40.90625l-73.648438-21.609376c-10.101562-6.433593-16.199218-17.53125-16.199218-29.449218-.007813-9.453125 6.109375-17.707032 15.210937-22.183594zm0 0" fill="#72a6bf"/><path d="m441.378906 414.898438c0 53.625-43.472656 97.101562-97.101562 97.101562s-97.105469-43.476562-97.105469-97.101562c0-53.628907 43.476563-97.105469 97.105469-97.105469s97.101562 43.476562 97.101562 97.105469zm0 0" fill="#23a24d"/><g fill="#fff"><path d="m344.277344 476.691406c-4.875 0-8.828125-3.949218-8.828125-8.828125v-105.933593c0-4.878907 3.953125-8.828126 8.828125-8.828126 4.871094 0 8.824218 3.949219 8.824218 8.828126v105.933593c0 4.878907-3.953124 8.828125-8.824218 8.828125zm0 0"/><path d="m397.242188 423.722656h-105.933594c-4.871094 0-8.824219-3.945312-8.824219-8.824218 0-4.882813 3.953125-8.828126 8.824219-8.828126h105.933594c4.871093 0 8.828124 3.945313 8.828124 8.828126 0 4.878906-3.957031 8.824218-8.828124 8.824218zm0 0"/></g></svg>