<?xml version="1.0" encoding="iso-8859-1"?>
<!-- Generator: Adobe Illustrator 21.0.0, SVG Export Plug-In . SVG Version: 6.00 Build 0)  -->
<svg xmlns="http://www.w3.org/2000/svg" xmlns:xlink="http://www.w3.org/1999/xlink" version="1.1" id="Capa_1" x="0px" y="0px" viewBox="0 0 512 512" style="enable-background:new 0 0 512 512;" xml:space="preserve" width="512" height="512">
<g>
	<polygon style="fill:#F9B10D;" points="146.088,120.187 154.917,311.438 512,311.438 512,120.187  "/>
	<rect x="277.563" y="120.187" style="fill:#FD982C;" width="234.437" height="191.251"/>
	<rect y="60.187" style="fill:#CBE8F8;" width="450.614" height="191.251"/>
	<rect x="214.788" y="60.187" style="fill:#B2DCFD;" width="235.826" height="191.251"/>
	<polygon style="fill:#FC1D5A;" points="181.555,201.584 0,308.073 45.661,334.019 8.328,399.718 100.005,451.813 137.338,386.114    182.999,412.059  "/>
	<g>
		<path style="fill:#22B8F9;" d="M72.316,145.544v8.232h20.032v12.211H72.316v15.367h-16.19v-48.022h39.035v12.212H72.316z"/>
		<path style="fill:#22B8F9;" d="M101.477,157.342c0-14.543,11.457-25.108,27.099-25.108s27.098,10.565,27.098,25.108    c0,14.545-11.456,25.109-27.098,25.109S101.477,171.887,101.477,157.342z M139.346,157.342c0-7.478-4.803-12.005-10.771-12.005    c-5.969,0-10.771,4.527-10.771,12.005c0,7.479,4.803,12.006,10.771,12.006C134.543,169.348,139.346,164.821,139.346,157.342z"/>
		<path style="fill:#22B8F9;" d="M165.007,133.332h16.19v35.468h21.679v12.555h-37.869V133.332z"/>
		<path style="fill:#22B8F9;" d="M210.769,133.332h16.19v35.468h21.679v12.555h-37.869V133.332z"/>
		<path style="fill:#22B8F9;" d="M253.923,157.342c0-14.543,11.456-25.108,27.099-25.108c15.641,0,27.098,10.565,27.098,25.108    c0,14.545-11.457,25.109-27.098,25.109C265.379,182.452,253.923,171.887,253.923,157.342z M291.792,157.342    c0-7.478-4.803-12.005-10.771-12.005c-5.969,0-10.771,4.527-10.771,12.005c0,7.479,4.803,12.006,10.771,12.006    C286.989,169.348,291.792,164.821,291.792,157.342z"/>
		<path style="fill:#22B8F9;" d="M393.878,133.332l-15.367,48.022h-17.356l-7.752-25.658l-8.164,25.658h-17.357l-15.367-48.022    h16.671l8.37,27.304l8.85-27.304h14.887l8.37,27.647l8.85-27.647H393.878z"/>
	</g>
	<g>
		<polygon style="fill:#0082FF;" points="226.959,168.799 226.959,133.332 214.788,133.332 214.788,181.354 248.638,181.354     248.638,168.799   "/>
		<path style="fill:#0082FF;" d="M253.923,157.342c0-14.543,11.456-25.108,27.099-25.108c15.641,0,27.098,10.565,27.098,25.108    c0,14.545-11.457,25.109-27.098,25.109C265.379,182.452,253.923,171.887,253.923,157.342z M291.792,157.342    c0-7.478-4.803-12.005-10.771-12.005c-5.969,0-10.771,4.527-10.771,12.005c0,7.479,4.803,12.006,10.771,12.006    C286.989,169.348,291.792,164.821,291.792,157.342z"/>
		<path style="fill:#0082FF;" d="M393.878,133.332l-15.367,48.022h-17.356l-7.752-25.658l-8.164,25.658h-17.357l-15.367-48.022    h16.671l8.37,27.304l8.85-27.304h14.887l8.37,27.647l8.85-27.647H393.878z"/>
	</g>
</g>















</svg>
